<?xml version="1.0" standalone="no"?>
<!DOCTYPE svg PUBLIC "-//W3C//DTD SVG 20010904//EN"
 "http://www.w3.org/TR/2001/REC-SVG-20010904/DTD/svg10.dtd">
<svg version="1.0" xmlns="http://www.w3.org/2000/svg"
 width="1920.000000pt" height="1920.000000pt" viewBox="0 0 1920.000000 1920.000000"
 preserveAspectRatio="xMidYMid meet">
<metadata>
Created by potrace 1.14, written by Peter Selinger 2001-2017
</metadata>
<g transform="translate(0.000000,1920.000000) scale(0.100000,-0.100000)"
fill="#000000" stroke="none">
<path d="M3930 18978 c-24 -123 -45 -227 -46 -233 -1 -5 -27 -135 -58 -288
-31 -153 -58 -289 -60 -302 -3 -14 -12 -60 -20 -102 -9 -43 -18 -87 -20 -98
-2 -11 -30 -148 -61 -305 -32 -157 -58 -294 -59 -305 -1 -20 5 -20 1121 -20
1118 0 1122 0 1118 -20 -7 -28 -33 -164 -39 -198 -3 -15 -7 -35 -10 -45 -3 -9
-7 -33 -10 -52 -3 -19 -17 -91 -31 -160 -15 -69 -28 -134 -29 -145 -3 -17 -12
-63 -32 -155 -3 -14 -7 -36 -9 -50 -2 -14 -11 -61 -21 -105 -9 -44 -18 -89
-20 -100 -1 -11 -26 -135 -54 -275 -29 -140 -54 -266 -56 -280 -3 -14 -11 -56
-20 -95 -8 -38 -16 -79 -18 -90 -19 -97 -102 -514 -121 -605 -36 -170 -85
-419 -85 -430 0 -6 627 -9 1681 -9 925 0 1684 -2 1686 -4 2 -3 -1 -24 -6 -48
-5 -24 -12 -55 -14 -69 -5 -22 -74 -371 -82 -411 -2 -9 -6 -33 -9 -54 -4 -20
-8 -41 -11 -45 -2 -4 -7 -22 -9 -41 -3 -19 -14 -79 -26 -134 -11 -55 -23 -111
-25 -125 -7 -39 -14 -73 -21 -105 -4 -16 -8 -39 -10 -50 -5 -42 -156 -780
-160 -784 -2 -2 -762 -4 -1689 -4 -927 0 -1685 -3 -1685 -7 0 -5 -9 -59 -19
-122 -11 -62 -22 -134 -25 -160 -4 -26 -8 -53 -11 -60 -2 -7 -7 -31 -10 -53
-3 -22 -12 -80 -21 -130 -8 -49 -17 -101 -19 -115 -2 -14 -16 -95 -30 -180
-15 -85 -28 -166 -29 -180 -2 -14 -6 -38 -9 -55 -4 -16 -9 -46 -11 -65 -3 -19
-8 -45 -10 -56 -2 -12 -7 -37 -10 -55 -3 -19 -12 -79 -21 -134 -17 -107 -22
-137 -30 -174 -2 -12 -7 -42 -9 -65 -3 -22 -8 -52 -11 -66 -10 -50 -14 -76
-20 -115 -4 -22 -8 -52 -11 -67 -2 -16 -6 -40 -8 -55 -6 -35 -13 -80 -27 -158
-6 -33 -12 -69 -14 -80 -8 -58 -16 -112 -20 -125 -3 -8 -7 -35 -10 -60 -3 -25
-13 -83 -21 -130 -8 -47 -17 -101 -20 -120 -2 -19 -7 -44 -9 -56 -3 -12 -7
-39 -11 -60 -7 -50 -93 -571 -100 -604 -2 -14 -7 -41 -10 -60 -3 -19 -16 -102
-30 -185 -14 -82 -27 -161 -29 -175 -2 -14 -13 -81 -25 -150 -21 -124 -25
-149 -35 -212 -3 -18 -10 -58 -15 -88 -5 -30 -12 -73 -15 -95 -3 -22 -8 -51
-11 -65 -2 -14 -6 -36 -9 -50 -2 -14 -13 -83 -25 -155 -12 -71 -23 -139 -25
-150 -2 -18 -17 -105 -29 -175 -8 -46 -45 -275 -51 -315 -6 -41 -11 -66 -20
-120 -18 -100 -27 -150 -30 -178 -3 -27 -16 -100 -20 -117 -1 -3 -5 -30 -9
-60 -5 -30 -10 -64 -12 -75 -3 -11 -7 -36 -10 -55 -11 -70 -54 -326 -59 -350
-2 -14 -6 -41 -9 -60 -2 -19 -12 -78 -21 -130 -9 -52 -18 -106 -20 -120 -2
-14 -13 -81 -25 -150 -28 -167 -27 -162 -45 -270 -8 -52 -17 -106 -20 -120
-21 -120 -85 -521 -91 -580 -2 -25 -6 -55 -9 -68 -2 -13 -7 -53 -10 -90 -4
-37 -8 -78 -10 -91 -19 -119 -27 -709 -11 -876 4 -44 9 -100 11 -125 2 -25 7
-63 10 -85 3 -22 8 -56 10 -75 105 -767 399 -1451 873 -2032 130 -158 470
-491 596 -583 23 -16 43 -32 46 -35 26 -29 269 -194 415 -282 112 -67 331
-182 440 -230 33 -15 87 -39 120 -53 98 -44 410 -160 456 -170 9 -2 63 -18
120 -35 57 -17 115 -34 129 -36 14 -3 61 -14 105 -25 138 -36 421 -89 550
-104 28 -3 64 -7 80 -10 17 -2 62 -7 100 -10 39 -4 80 -8 93 -10 12 -2 64 -7
115 -10 50 -4 108 -9 127 -11 65 -6 284 -17 369 -18 95 -1 91 -4 105 93 3 21
7 50 10 63 3 12 8 40 11 62 3 21 7 41 9 45 2 3 7 30 10 60 4 29 8 56 10 60 2
3 7 26 10 51 3 25 8 56 11 70 3 14 8 39 10 55 13 71 25 142 30 165 3 14 10 54
15 90 6 36 12 74 14 85 2 11 22 121 45 245 22 124 43 245 46 270 4 24 8 47 10
50 2 3 6 26 10 50 3 25 8 52 10 60 2 8 7 31 10 50 3 19 10 60 15 90 20 115 20
114 35 190 5 27 11 63 20 125 4 22 12 72 20 110 7 39 16 88 20 110 9 51 10 56
35 195 11 63 32 180 46 260 14 80 27 153 30 163 5 15 -3 17 -63 18 -131 2
-169 6 -377 39 -38 6 -73 13 -77 15 -3 3 -24 7 -45 11 -75 11 -310 96 -434
156 -69 33 -127 64 -130 67 -3 3 -22 15 -43 26 -70 36 -241 170 -327 256 -217
215 -370 457 -473 745 -126 354 -139 530 -67 924 11 58 22 122 26 144 6 40 8
49 23 131 6 28 12 64 15 80 7 52 26 158 36 205 6 25 12 59 14 75 3 27 13 85
31 180 3 17 8 45 10 64 3 18 7 36 9 40 3 4 7 29 11 57 3 27 7 56 10 64 2 8 7
31 10 50 3 19 12 71 20 115 16 88 20 111 30 170 4 22 13 72 20 110 8 39 16 88
19 110 3 22 14 87 25 145 11 58 23 119 25 135 3 17 8 41 10 55 3 14 8 41 10
60 3 19 8 46 11 60 4 22 108 602 119 670 14 75 27 148 31 170 9 45 29 162 42
239 4 25 7 48 8 51 1 3 4 19 8 35 3 17 8 46 11 65 3 19 16 94 30 165 13 72 27
148 30 170 4 22 15 87 26 145 10 58 31 173 45 255 15 83 29 159 31 170 2 10 6
35 9 55 3 20 7 47 10 60 5 23 13 69 21 114 17 95 76 425 79 441 1 11 8 47 14
80 6 33 13 71 16 85 2 14 15 88 29 165 14 77 28 156 31 175 3 19 8 42 10 50 2
8 6 33 10 55 3 22 21 126 40 230 44 242 65 362 71 400 3 17 11 64 19 105 7 41
21 116 29 165 9 50 21 113 26 140 5 28 21 118 35 200 15 83 28 161 31 175 2
14 27 153 55 310 27 157 52 292 55 301 4 14 151 15 1454 15 1281 -1 1451 1
1455 14 4 14 89 435 99 493 3 15 7 35 10 45 3 9 7 34 11 55 3 22 12 69 20 105
8 37 16 78 19 92 2 14 7 36 10 50 3 14 8 36 10 50 4 23 41 207 51 256 22 104
86 428 91 459 3 22 8 43 10 47 3 4 7 22 9 40 3 18 11 62 19 98 8 36 12 67 11
68 -2 2 -653 4 -1447 4 -794 0 -1446 2 -1450 4 -3 2 2 41 12 86 10 46 21 100
24 122 4 21 8 41 10 45 2 3 7 24 10 46 6 38 11 64 21 110 2 11 16 79 30 150
15 72 28 139 31 150 2 11 7 36 10 55 9 47 10 55 27 135 9 39 18 84 20 100 3
17 15 75 27 130 11 55 23 111 25 125 3 14 7 34 9 45 7 34 67 339 72 365 3 14
21 104 40 200 20 96 38 186 40 200 3 14 7 32 9 40 2 8 7 29 9 45 3 17 22 111
42 210 20 99 38 194 41 210 2 17 15 77 27 135 l22 105 -1684 0 c-926 0 -1685
2 -1687 6 -2 3 0 23 5 45 5 21 11 50 13 64 3 14 17 84 31 155 14 72 28 141 31
155 3 14 9 48 15 75 6 28 12 59 14 70 2 11 13 65 25 120 11 55 23 114 25 130
3 17 14 73 25 125 11 52 22 109 25 125 7 35 12 61 26 130 15 72 20 96 25 130
3 17 8 37 10 45 2 8 7 31 10 50 3 19 8 42 10 50 2 8 6 27 9 43 3 15 7 35 10
45 3 9 7 33 10 52 3 19 16 86 29 148 l24 112 -1126 0 -1127 0 -44 -222z"/>
<path d="M4240 14505 c-6 -8 -51 -219 -76 -358 -2 -16 -20 -104 -39 -195 -19
-92 -37 -180 -39 -197 -3 -16 -17 -84 -30 -150 -14 -66 -28 -136 -31 -155 -3
-19 -8 -42 -10 -50 -2 -8 -6 -26 -9 -40 -3 -14 -16 -83 -30 -155 -15 -71 -28
-141 -31 -155 -2 -14 -22 -112 -43 -217 -22 -106 -36 -193 -33 -194 3 0 212
-1 464 -2 453 -2 483 0 476 29 -2 5 3 34 9 64 7 30 14 66 17 80 3 14 7 36 10
50 3 14 7 36 10 50 3 14 7 36 10 50 3 14 7 34 9 45 2 11 20 101 40 200 20 99
38 189 40 200 2 11 29 146 60 300 31 155 58 292 61 305 3 13 18 92 35 175 17
83 33 162 35 176 3 13 8 38 11 54 2 17 9 45 14 63 4 17 8 32 7 33 -1 0 -211 1
-465 2 -299 1 -466 -2 -472 -8z"/>
<path d="M10819 11396 c-2 -2 -56 -7 -119 -10 -63 -4 -131 -9 -150 -11 -19 -3
-57 -7 -85 -10 -27 -3 -63 -8 -80 -11 -16 -3 -43 -7 -60 -9 -42 -4 -161 -25
-280 -49 -26 -5 -176 -41 -235 -56 -25 -7 -52 -13 -60 -15 -94 -21 -520 -169
-640 -223 -25 -10 -74 -32 -110 -48 -36 -15 -130 -61 -210 -103 -80 -41 -155
-79 -167 -85 -13 -6 -23 -14 -23 -18 0 -5 -4 -8 -9 -8 -13 0 -198 -110 -210
-124 -5 -6 -12 -29 -15 -51 -4 -22 -13 -76 -21 -120 -8 -44 -17 -93 -20 -110
-2 -16 -7 -40 -9 -51 -2 -12 -7 -37 -10 -55 -3 -19 -8 -45 -10 -59 -3 -14 -7
-41 -10 -60 -3 -19 -8 -46 -11 -60 -3 -14 -8 -41 -11 -60 -6 -40 -22 -134 -29
-168 -2 -13 -14 -78 -25 -145 -26 -150 -28 -166 -35 -197 -3 -14 -10 -56 -16
-95 -6 -38 -12 -74 -14 -80 -5 -27 -38 -208 -70 -395 -3 -14 -7 -36 -9 -50 -3
-14 -8 -41 -10 -60 -3 -19 -7 -44 -10 -55 -2 -11 -7 -40 -12 -65 -4 -25 -8
-47 -9 -50 0 -3 -4 -26 -8 -51 -13 -77 -17 -102 -27 -154 -5 -27 -12 -63 -15
-80 -2 -16 -14 -79 -24 -140 -11 -60 -23 -126 -26 -145 -3 -19 -12 -71 -20
-115 -8 -44 -17 -96 -20 -115 -3 -19 -12 -71 -20 -115 -8 -44 -17 -93 -20
-110 -2 -16 -7 -41 -10 -55 -4 -20 7 -12 62 40 37 36 70 67 73 70 41 43 317
274 333 279 7 2 14 7 17 10 10 13 148 101 158 101 6 0 12 4 14 8 3 8 124 82
133 82 2 0 34 18 72 39 38 21 98 51 133 65 36 15 73 31 83 37 10 5 50 21 90
35 40 14 79 28 87 31 8 4 17 7 20 8 3 1 12 4 20 8 8 3 35 12 60 18 56 16 48
13 96 27 73 21 257 60 319 67 33 4 67 9 76 10 98 18 467 25 589 11 149 -17
202 -24 265 -37 50 -10 62 -13 185 -44 229 -59 559 -226 724 -366 141 -119
328 -327 391 -436 11 -18 23 -33 27 -33 4 0 8 -9 8 -19 0 -11 4 -21 9 -23 18
-6 162 -301 177 -360 2 -10 6 -27 8 -37 3 -11 9 -28 15 -39 5 -10 12 -30 15
-43 3 -13 14 -54 25 -91 11 -38 18 -68 16 -68 -2 0 3 -16 11 -35 11 -27 11
-35 2 -35 -9 0 -10 -3 -2 -8 6 -4 12 -14 12 -22 1 -8 4 -28 6 -45 3 -16 8 -50
11 -75 3 -25 8 -61 11 -80 2 -19 6 -75 8 -123 2 -48 6 -90 9 -93 3 -3 1 -19
-4 -36 -5 -17 -5 -38 0 -46 5 -8 5 -28 1 -44 -5 -16 -5 -30 1 -34 5 -3 7 -9 4
-14 -3 -5 -7 -51 -10 -102 -4 -95 -11 -182 -22 -253 -3 -22 -7 -53 -9 -70 -5
-51 -13 -103 -24 -150 -6 -25 -13 -62 -16 -83 -3 -20 -10 -42 -15 -48 -5 -6
-6 -13 -3 -17 3 -3 0 -16 -7 -29 -7 -12 -13 -37 -15 -55 -1 -17 -8 -48 -15
-70 -15 -43 -20 -62 -21 -80 -1 -7 -5 -13 -9 -13 -5 0 -6 -7 -3 -15 4 -8 1
-15 -6 -15 -6 0 -8 -4 -5 -10 3 -5 3 -16 -2 -22 -4 -7 -8 -17 -9 -23 -6 -27
-40 -111 -49 -117 -5 -4 -7 -8 -3 -8 10 0 -32 -113 -46 -122 -6 -4 -7 -8 -1
-8 5 0 4 -5 -3 -12 -7 -7 -12 -20 -12 -30 0 -10 -4 -18 -8 -18 -5 0 -9 -6 -9
-13 0 -13 -92 -207 -102 -217 -3 -3 -21 -34 -39 -70 -19 -36 -41 -77 -50 -92
-72 -116 -127 -200 -138 -209 -8 -6 -14 -17 -14 -24 0 -8 -4 -15 -8 -17 -5 -1
-28 -30 -52 -63 -108 -148 -326 -381 -473 -506 -134 -114 -204 -166 -342 -256
-55 -36 -112 -74 -127 -84 -15 -11 -30 -19 -34 -19 -3 0 -18 -9 -33 -19 -39
-28 -271 -143 -376 -186 -130 -53 -334 -119 -435 -139 -41 -8 -134 -27 -150
-31 -8 -2 -24 -4 -35 -4 -30 -2 -45 -15 -50 -42 -6 -40 -25 -142 -29 -165 -2
-12 -7 -39 -11 -60 -6 -43 -12 -77 -20 -114 -3 -14 -7 -38 -10 -55 -3 -16 -7
-43 -10 -60 -3 -16 -8 -50 -12 -75 -3 -25 -9 -47 -14 -48 -5 -2 -7 -7 -4 -12
3 -4 1 -30 -4 -56 -5 -27 -12 -67 -15 -89 -4 -23 -9 -52 -12 -65 -8 -38 -12
-62 -18 -100 -3 -19 -10 -57 -15 -85 -5 -27 -7 -53 -5 -57 3 -5 1 -8 -3 -8 -5
0 -9 -10 -10 -22 0 -13 -6 -54 -13 -93 -7 -38 -14 -79 -15 -90 -2 -11 -4 -20
-5 -20 -1 0 -3 -11 -5 -25 -1 -14 -5 -36 -8 -50 -2 -14 -12 -70 -22 -125 -9
-55 -19 -107 -22 -115 -3 -8 -7 -31 -9 -50 -2 -18 -6 -48 -9 -65 -4 -28 -7
-40 -20 -105 -3 -14 -8 -45 -11 -70 -3 -25 -11 -51 -16 -57 -7 -9 -7 -13 1
-13 7 0 8 -8 2 -23 -5 -13 -12 -40 -15 -60 -3 -20 -9 -54 -13 -74 -3 -21 -6
-46 -7 -55 0 -10 -3 -18 -6 -18 -3 0 -5 -10 -6 -22 -1 -32 -20 -143 -24 -143
-1 0 -3 -13 -5 -30 -1 -16 -4 -32 -5 -35 -1 -3 -2 -9 -1 -14 1 -5 -1 -16 -5
-25 -4 -9 -8 -27 -10 -41 -4 -38 -14 -102 -20 -130 -6 -31 -12 -63 -29 -158
l-12 -73 96 6 c53 3 110 7 126 9 17 2 66 7 110 11 282 25 873 133 1070 196 17
5 102 29 190 54 251 70 486 153 780 275 163 68 527 245 660 320 39 22 81 45
95 52 14 7 71 41 128 75 56 35 107 63 112 63 4 0 10 4 12 8 2 4 32 26 68 48
36 23 108 71 160 107 52 37 103 72 114 79 79 54 391 292 416 318 3 3 36 32 75
65 38 33 92 80 120 105 85 76 487 481 560 564 39 44 77 87 87 97 36 38 196
239 280 353 49 67 95 129 103 138 7 9 18 25 24 36 6 11 17 26 24 34 12 13 150
223 172 263 9 17 68 112 113 181 6 10 17 30 23 44 6 14 16 32 24 40 42 47 318
629 413 870 94 239 223 653 281 900 26 112 69 316 76 360 10 65 13 85 24 145
6 33 13 78 16 100 13 105 16 132 20 155 8 50 21 194 33 350 14 202 7 809 -13
985 -1 17 -6 57 -9 90 -24 231 -72 491 -136 740 -38 149 -149 482 -183 553
-14 29 -29 66 -32 82 -4 17 -11 30 -16 30 -5 0 -9 7 -9 16 0 40 -200 418 -315
594 -50 77 -185 271 -195 280 -3 3 -32 39 -65 80 -116 147 -362 397 -531 540
-16 13 -76 59 -134 102 -58 43 -110 83 -117 88 -29 24 -247 162 -348 220 -93
54 -365 190 -380 190 -2 0 -30 12 -62 26 -139 64 -409 152 -638 209 -290 71
-540 114 -765 130 -47 4 -101 9 -120 11 -43 6 -635 16 -641 10z"/>
<path d="M9460 6244 c-179 -47 -336 -193 -394 -367 -32 -96 -36 -198 -11 -317
28 -135 158 -296 295 -363 41 -20 89 -39 105 -42 17 -2 41 -7 55 -11 47 -10
159 -5 222 11 203 51 369 217 417 418 13 53 16 161 6 222 -34 213 -203 395
-420 450 -74 19 -202 18 -275 -1z"/>
</g>
</svg>
